<?xml version="1.0" encoding="utf-8"?>
<!-- Generator: Adobe Illustrator 18.1.1, SVG Export Plug-In . SVG Version: 6.00 Build 0)  -->
<svg version="1.1" id="Layer_1" xmlns="http://www.w3.org/2000/svg" xmlns:xlink="http://www.w3.org/1999/xlink" x="0px" y="0px"
	 viewBox="0 0 900 300" enable-background="new 0 0 900 300" xml:space="preserve">
<rect fill="#35FF59" width="900" height="300"/>
<circle cx="309.7" cy="146.5" r="60.7"/>
<text transform="matrix(1 0 0 1 257.03 190.98)" fill="#FFFFFF" font-family="'MyriadPro-Regular'" font-size="174">+</text>
<circle fill="#FFFFFF" cx="470.6" cy="80.2" r="21.7"/>
<line fill="none" stroke="#FFFFFF" stroke-width="5" stroke-miterlimit="10" x1="470.5" y1="92" x2="470.5" y2="189"/>
<line fill="none" stroke="#FFFFFF" stroke-width="5" stroke-miterlimit="10" x1="522.7" y1="92" x2="470.6" y2="131.2"/>
<line fill="none" stroke="#FFFFFF" stroke-width="5" stroke-miterlimit="10" x1="418.6" y1="92" x2="470.7" y2="131.2"/>
<line fill="none" stroke="#FFFFFF" stroke-width="5" stroke-miterlimit="10" x1="449" y1="246.4" x2="470.2" y2="184.8"/>
<line fill="none" stroke="#FFFFFF" stroke-width="5" stroke-miterlimit="10" x1="492.2" y1="246.4" x2="471" y2="184.8"/>
<circle cx="621.7" cy="146.5" r="60.7"/>
<text transform="matrix(1 0 0 1 570.2322 191.0001)" fill="#FFFFFF" font-family="'MyriadPro-Regular'" font-size="174">=</text>
<path fill="#FFFFFF" stroke="#000000" stroke-miterlimit="10" d="M194.3,180.7h-85.1c-6.6,0-12-5.4-12-12V104c0-6.6,5.4-12,12-12
	h85.1c6.6,0,12,5.4,12,12v64.7C206.3,175.3,200.9,180.7,194.3,180.7z"/>
<path fill="#FFFFFF" d="M197.1,197.9h-92.6c-1.7,0-3.2-1.4-3.2-3.2v-7.4c0-1.7,1.4-3.2,3.2-3.2h92.6c1.7,0,3.2,1.4,3.2,3.2v7.4
	C200.3,196.4,198.9,197.9,197.1,197.9z"/>
<path fill="#FFFFFF" stroke="#000000" stroke-miterlimit="10" d="M179.2,172.8h-55.8c-6.6,0-12-5.4-12-12v-46.9c0-6.6,5.4-12,12-12
	h55.8c6.6,0,12,5.4,12,12v46.9C191.2,167.4,185.8,172.8,179.2,172.8z"/>
<path stroke="#000000" stroke-miterlimit="10" d="M173,191h-42.4c-0.6,0-1-0.5-1-1l0,0c0-0.6,0.5-1,1-1H173c0.6,0,1,0.5,1,1l0,0
	C174,190.6,173.6,191,173,191z"/>
<text transform="matrix(1.1062 0 0 1 742.9902 208.1592)" fill="#FFFFFF" font-family="'MyriadPro-Regular'" font-size="194.5018">?</text>
</svg>
