<?xml version="1.0" encoding="utf-8"?>
<!-- Generator: Adobe Illustrator 18.1.1, SVG Export Plug-In . SVG Version: 6.00 Build 0)  -->
<svg version="1.1" id="Layer_1" xmlns="http://www.w3.org/2000/svg" xmlns:xlink="http://www.w3.org/1999/xlink" x="0px" y="0px"
	 viewBox="0 0 960 560" enable-background="new 0 0 960 560" xml:space="preserve">
<path fill="#35FF59" d="M847.5,503H144.3c-11.1,0-20.1-7.7-20.1-17V49c0-9.4,9-17,20.1-17h703.4c11.1,0,20.1,7.7,20.1,17v437.1
	C867.6,495.3,858.6,503,847.5,503z"/>
<circle fill="#FFFFFF" cx="494.5" cy="391.7" r="156.5"/>
<ellipse fill="#35FF59" cx="581.7" cy="343.5" rx="29.6" ry="25.3"/>
<ellipse fill="#35FF59" cx="420.7" cy="343.5" rx="29.6" ry="25.3"/>
<ellipse fill="#FFFFFF" cx="318.2" cy="135.5" rx="174.2" ry="72.5"/>
<polygon fill="#FFFFFF" points="404.7,239.4 271.3,191.3 379.7,99.8 "/>
<text transform="matrix(1 0 0 1 205 141.7931)" font-family="'MyriadPro-Regular'" font-size="28">I am Will Redington</text>
<ellipse fill="#35FF59" cx="496" cy="439" rx="98" ry="28"/>
<ellipse fill="#FFFFFF" cx="693.8" cy="170.1" rx="150.8" ry="75.9"/>
<polygon fill="#FFFFFF" points="618.9,271.6 734.4,232.3 640.6,157.7 "/>
<text transform="matrix(1 0 0 1 581.7 157.6534)"><tspan x="0" y="0" font-family="'MyriadPro-Regular'" font-size="28">I develop software </tspan><tspan x="0" y="33.6" font-family="'MyriadPro-Regular'" font-size="28">and build websites.</tspan></text>
</svg>
